<svg xmlns="http://www.w3.org/2000/svg">
  <symbol id="htmlacademy-icon" viewBox="0 0 154.38 195.33">
    <path d="M78,.59,77.19.5.5,8.54V149.11l76.69,45.63,76.69-45.63V8.54Zm65.86,142.82L77.19,183.07,10.53,143.41V85.79L76.91,125.3l.11,7.16-45.53-27.1-.07,7,45.71,27.47.11,7.35-45.7-27.19-.07,7,45.71,27.47,46.15-27.62v-7l-.06,0V97.1l20.57-12.28Zm-.05-66.06L125.56,88.09l-8.42,5L77,69.17l-.07,7,34.32,20.41-.3.18-.74.44L105.33,100,77,83.16l-.07,7,22.36,13.3L94,106.94l-.13.08L77,97.06l-.07,7L88,110.54l-11.29,6.78-66-39.26L76.82,38.31h0Zm.05-7-67-39.51h0L10.53,70.31V17.58l66.66-7,66.66,7Z"/>
  </symbol>
  <symbol id="replay-icon" viewBox="0 0 16 20">
    <path d="M8 4V0L3 5l5 5V6a6 6 0 11-6 6H0a8 8 0 108-8z"/>
  </symbol>
  <symbol id="subtitles-icon" viewBox="0 0 32 20">
    <path d="M29 0H3a3 3 0 00-3 3v14a3 3 0 003 3h26a3 3 0 003-3V3a3 3 0 00-3-3zM14.4 15.85a8.58 8.58 0 01-1.68.16 6 6 0 01-2-.32 4.21 4.21 0 01-1.65-1A5.13 5.13 0 018 12.79 8.12 8.12 0 017.55 10 7.56 7.56 0 018 7.15 5.2 5.2 0 019.25 5.3a4.53 4.53 0 011.68-1 5.86 5.86 0 011.85-.3 9 9 0 011.68.13 6.07 6.07 0 011.13.31l-.45 1.92a3.31 3.31 0 00-.9-.26A8.27 8.27 0 0013 6a2.76 2.76 0 00-2.21 1 4.59 4.59 0 00-.84 3 6.27 6.27 0 00.2 1.63 3.51 3.51 0 00.6 1.26 2.78 2.78 0 001 .81 3.19 3.19 0 001.4.29 4.55 4.55 0 001.26-.15 3.71 3.71 0 00.89-.38l.46 1.84a3.48 3.48 0 01-1.36.55zm8.7 0a8.59 8.59 0 01-1.68.16 6 6 0 01-2-.32 4.21 4.21 0 01-1.65-1 5.13 5.13 0 01-1.13-1.87 8.12 8.12 0 01-.39-2.82 7.56 7.56 0 01.47-2.85 5.2 5.2 0 011.22-1.85 4.53 4.53 0 011.68-1 5.86 5.86 0 011.85-.3 9 9 0 011.68.13 6 6 0 011.13.31l-.45 1.92a3.29 3.29 0 00-.9-.26 8.28 8.28 0 00-1.26-.1 2.76 2.76 0 00-2.21 1 4.59 4.59 0 00-.84 3 6.28 6.28 0 00.2 1.63 3.51 3.51 0 00.6 1.26 2.77 2.77 0 001 .81 3.19 3.19 0 001.4.29 4.55 4.55 0 001.26-.15 3.71 3.71 0 00.89-.38l.46 1.84a3.48 3.48 0 01-1.33.55z"/>
  </symbol>
  <symbol id="maximize-icon" viewBox="0 0 20 20">
    <path d="M0 0v6h3V3h3V0H0zM3 14H0v6h6v-3H3v-3zM17 0h-3v3h3v3h3V0h-3zM17 17h-3v3h6v-6h-3v3z"/>
  </symbol>
  <symbol id="like-icon" viewBox="0 0 22 20">
    <path d="M12.38 3.65l-.64 2.93L11.22 9h8.68v2.06L17 18H8V8l4.37-4.37M13.2 0L6.6 6.6A1.68 1.68 0 006 8v10a2 2 0 002 2h9a2 2 0 001.8-1.2l3-7.1a1.69 1.69 0 00.1-.7V9h.1a2 2 0 00-2-2h-6.3l1-4.6v-.3a2.1 2.1 0 00-.4-1.1l-1.1-1zM4 8H0v12h4V8zm18 1z"/>
  </symbol>
</svg>