<svg xmlns="http://www.w3.org/2000/svg" width="39"  height="37" fill="#81b3d2" viewBox="0 0 63 75.08"><path d="M60.17 22.23H35.76c13.6-6.81 14.69-11.11 14.19-13.52-1.14-3.92-5.6-6.94-9.85-5.34-5.48 2.06-7 10.26-8.51 16.19-1.89-6-3.73-13.65-8-17.52A7.19 7.19 0 0017.9 0c-4 .35-9.65 5.32-7.34 10.85 2.22 5.31 9.54 8.67 14.35 11.35H2.83A2.84 2.84 0 000 25.07v11.18a2.84 2.84 0 002.84 2.83h.27v36h57v-36h.1A2.84 2.84 0 0063 36.25V25.07a2.85 2.85 0 00-2.83-2.84zM41.77 5.87c2.07-.31 4.91 1.28 5.18 3.17.39 2.72-3.35 5.19-5 6.34-2.48 1.72-4.85 2.61-7.18 4 .86-3.63 2.5-12.84 7-13.51zm-22.54 9.85C17 14.25 12.79 11.34 12.89 8c.11-3.51 5.65-6.45 8.68-3.8 3.8 3.33 5.62 11 7 16.36a68.29 68.29 0 01-9.34-4.84zm5.88 56.43H6V39.08h19.11zm0-36.06H3V25.23h22.11zm10 36.06h-7.06V25.23h7.06zm22 0H38.05V39.08h19.08zM60 36.08H38.05V25.23H60z"/></svg>