<svg xmlns="http://www.w3.org/2000/svg" width="32" height="20" fill="#5c6870"><path d="M29 0H3a3 3 0 00-3 3v14a3 3 0 003 3h26a3 3 0 003-3V3a3 3 0 00-3-3zM14.4 15.85a8.58 8.58 0 01-1.68.16 6 6 0 01-2-.32 4.21 4.21 0 01-1.65-1A5.13 5.13 0 018 12.79 8.12 8.12 0 017.55 10 7.56 7.56 0 018 7.15 5.2 5.2 0 019.25 5.3a4.53 4.53 0 011.68-1 5.86 5.86 0 011.85-.3 9 9 0 011.68.13 6.07 6.07 0 011.13.31l-.45 1.92a3.31 3.31 0 00-.9-.26A8.27 8.27 0 0013 6a2.76 2.76 0 00-2.21 1 4.59 4.59 0 00-.84 3 6.27 6.27 0 00.2 1.63 3.51 3.51 0 00.6 1.26 2.78 2.78 0 001 .81 3.19 3.19 0 001.4.29 4.55 4.55 0 001.26-.15 3.71 3.71 0 00.89-.38l.46 1.84a3.48 3.48 0 01-1.36.55zm8.7 0a8.59 8.59 0 01-1.68.16 6 6 0 01-2-.32 4.21 4.21 0 01-1.65-1 5.13 5.13 0 01-1.13-1.87 8.12 8.12 0 01-.39-2.82 7.56 7.56 0 01.47-2.85 5.2 5.2 0 011.22-1.85 4.53 4.53 0 011.68-1 5.86 5.86 0 011.85-.3 9 9 0 011.68.13 6 6 0 011.13.31l-.45 1.92a3.29 3.29 0 00-.9-.26 8.28 8.28 0 00-1.26-.1 2.76 2.76 0 00-2.21 1 4.59 4.59 0 00-.84 3 6.28 6.28 0 00.2 1.63 3.51 3.51 0 00.6 1.26 2.77 2.77 0 001 .81 3.19 3.19 0 001.4.29 4.55 4.55 0 001.26-.15 3.71 3.71 0 00.89-.38l.46 1.84a3.48 3.48 0 01-1.33.55z"/></svg>